<svg xmlns="http://www.w3.org/2000/svg" xmlns:xlink="http://www.w3.org/1999/xlink" width="500" zoomAndPan="magnify" viewBox="0 0 375 374.999991" height="500" preserveAspectRatio="xMidYMid meet" version="1.2"><defs><clipPath id="f3c505b349"><path d="M 37.5 33.304688 L 341.695312 33.304688 L 341.695312 337.5 L 37.5 337.5 Z M 37.5 33.304688 "/></clipPath><clipPath id="351fa6f5de"><path d="M 189.597656 33.304688 C 105.597656 33.304688 37.5 101.402344 37.5 185.402344 C 37.5 269.402344 105.597656 337.5 189.597656 337.5 C 273.597656 337.5 341.695312 269.402344 341.695312 185.402344 C 341.695312 101.402344 273.597656 33.304688 189.597656 33.304688 Z M 189.597656 33.304688 "/></clipPath><clipPath id="eb303ad412"><path d="M 147 82.339844 L 218 82.339844 L 218 208 L 147 208 Z M 147 82.339844 "/></clipPath><clipPath id="a43a7b5f64"><path d="M 72.269531 119 L 160 119 L 160 213.589844 L 72.269531 213.589844 Z M 72.269531 119 "/></clipPath><clipPath id="ffb4eb2c3c"><path d="M 200.816406 97.570312 L 302.449219 97.570312 L 302.449219 147.355469 L 200.816406 147.355469 Z M 200.816406 97.570312 "/></clipPath><clipPath id="aed188fb4c"><path d="M 163.332031 143.0625 L 299.609375 143.0625 L 299.609375 213.578125 L 163.332031 213.578125 Z M 163.332031 143.0625 "/></clipPath></defs><g id="bad6aa051f"><rect x="0" width="375" y="0" height="374.999991" style="fill:#ffffff;fill-opacity:1;stroke:none;"/><rect x="0" width="375" y="0" height="374.999991" style="fill:#00609e;fill-opacity:1;stroke:none;"/><g clip-rule="nonzero" clip-path="url(#f3c505b349)"><g clip-rule="nonzero" clip-path="url(#351fa6f5de)"><path style=" stroke:none;fill-rule:nonzero;fill:#ffffff;fill-opacity:1;" d="M 37.5 33.304688 L 341.695312 33.304688 L 341.695312 337.5 L 37.5 337.5 Z M 37.5 33.304688 "/></g></g><g clip-rule="nonzero" clip-path="url(#eb303ad412)"><path style=" stroke:none;fill-rule:nonzero;fill:#e71f69;fill-opacity:1;" d="M 157.230469 207.546875 C 157.230469 207.546875 157.394531 169.820312 217.363281 120.125 C 217.363281 120.125 155.109375 163.28125 161.054688 82.339844 C 161.054688 82.339844 133.121094 138.566406 157.230469 207.546875 "/></g><path style=" stroke:none;fill-rule:nonzero;fill:#e71f69;fill-opacity:1;" d="M 187.789062 102.890625 C 194.238281 107 195.851562 116.007812 191.394531 123 C 186.933594 129.996094 178.089844 132.335938 171.636719 128.222656 C 165.1875 124.113281 163.574219 115.109375 168.035156 108.113281 C 172.492188 101.117188 181.335938 98.777344 187.789062 102.890625 "/><g clip-rule="nonzero" clip-path="url(#a43a7b5f64)"><path style=" stroke:none;fill-rule:nonzero;fill:#f8b31a;fill-opacity:1;" d="M 159.425781 213.191406 C 159.425781 213.191406 132.609375 191.015625 132.222656 119.1875 C 132.222656 119.1875 126.609375 188.824219 72.347656 137.261719 C 72.347656 137.261719 96.125 190.0625 159.425781 213.191406 "/></g><path style=" stroke:none;fill-rule:nonzero;fill:#f8b31a;fill-opacity:1;" d="M 102.636719 130.207031 C 109.339844 128.007812 116.707031 132.121094 119.089844 139.394531 C 121.472656 146.664062 117.96875 154.339844 111.265625 156.539062 C 104.5625 158.734375 97.195312 154.621094 94.8125 147.351562 C 92.429688 140.082031 95.929688 132.40625 102.636719 130.207031 "/><path style=" stroke:none;fill-rule:nonzero;fill:#00609e;fill-opacity:1;" d="M 287.023438 122.582031 L 246.230469 184.515625 C 201.605469 174.601562 173.164062 188.203125 168.757812 190.972656 C 168.757812 190.972656 208.355469 122.222656 287.023438 122.582031 "/><g clip-rule="nonzero" clip-path="url(#ffb4eb2c3c)"><path style=" stroke:none;fill-rule:nonzero;fill:#f8b31a;fill-opacity:1;" d="M 302.449219 97.679688 L 292.785156 112.351562 C 251.375 111.632812 219.9375 130.964844 200.835938 147.335938 C 218.335938 127.359375 252.253906 98.457031 302.449219 97.679688 "/></g><path style=" stroke:none;fill-rule:nonzero;fill:#e71f69;fill-opacity:1;" d="M 293.867188 135.253906 L 252.226562 196.988281 C 202.324219 185.058594 171.042969 199.742188 166.035156 202.355469 L 167.558594 195.988281 C 176.726562 191.597656 206.96875 181.359375 251.269531 191.949219 L 289.890625 134.378906 C 291.207031 134.644531 292.53125 134.9375 293.867188 135.253906 "/><g clip-rule="nonzero" clip-path="url(#aed188fb4c)"><path style=" stroke:none;fill-rule:nonzero;fill:#00609e;fill-opacity:1;" d="M 299.597656 144.035156 L 256.628906 207.597656 C 201.742188 194.476562 167.839844 211.167969 163.351562 213.578125 L 164.867188 207.242188 C 174.464844 202.5625 207.144531 191.160156 255.464844 202.707031 L 295.535156 143.136719 C 296.882812 143.410156 298.238281 143.707031 299.597656 144.035156 "/></g><g style="fill:#e71f69;fill-opacity:1;"><g transform="translate(132.516164, 251.960227)"><path style="stroke:none" d="M 27.84375 -25.9375 L 27.65625 -25.859375 C 26.539062 -26.878906 25.203125 -27.695312 23.640625 -28.3125 C 22.085938 -28.925781 20.375 -29.234375 18.5 -29.234375 C 16.707031 -29.234375 15.0625 -28.953125 13.5625 -28.390625 C 12.070312 -27.828125 10.785156 -27.007812 9.703125 -25.9375 C 8.628906 -24.875 7.789062 -23.566406 7.1875 -22.015625 C 6.59375 -20.460938 6.296875 -18.695312 6.296875 -16.71875 C 6.296875 -14.53125 6.582031 -12.492188 7.15625 -10.609375 C 7.726562 -8.722656 8.578125 -7.085938 9.703125 -5.703125 C 10.828125 -4.328125 12.234375 -3.242188 13.921875 -2.453125 C 15.609375 -1.660156 17.578125 -1.265625 19.828125 -1.265625 C 20.640625 -1.265625 21.453125 -1.347656 22.265625 -1.515625 C 23.078125 -1.691406 23.859375 -1.945312 24.609375 -2.28125 C 25.359375 -2.613281 26.0625 -3.015625 26.71875 -3.484375 C 27.382812 -3.960938 27.988281 -4.507812 28.53125 -5.125 L 28.765625 -4.984375 L 27.046875 -0.625 C 25.984375 -0.207031 24.804688 0.109375 23.515625 0.328125 C 22.222656 0.546875 20.925781 0.65625 19.625 0.65625 C 16.988281 0.65625 14.578125 0.273438 12.390625 -0.484375 C 10.203125 -1.242188 8.316406 -2.320312 6.734375 -3.71875 C 5.160156 -5.113281 3.9375 -6.789062 3.0625 -8.75 C 2.1875 -10.707031 1.75 -12.882812 1.75 -15.28125 C 1.75 -16.632812 1.921875 -17.960938 2.265625 -19.265625 C 2.617188 -20.578125 3.128906 -21.828125 3.796875 -23.015625 C 4.472656 -24.203125 5.300781 -25.289062 6.28125 -26.28125 C 7.257812 -27.269531 8.378906 -28.125 9.640625 -28.84375 C 10.910156 -29.570312 12.300781 -30.140625 13.8125 -30.546875 C 15.332031 -30.953125 16.972656 -31.15625 18.734375 -31.15625 C 21.484375 -31.15625 24.035156 -30.734375 26.390625 -29.890625 Z M 27.84375 -25.9375 "/></g></g><g style="fill:#f8b31a;fill-opacity:1;"><g transform="translate(162.141162, 251.960227)"><path style="stroke:none" d="M 3.671875 -22.265625 C 3.671875 -23.472656 3.65625 -24.53125 3.625 -25.4375 C 3.601562 -26.34375 3.5625 -27.125 3.5 -27.78125 C 3.445312 -28.445312 3.378906 -29 3.296875 -29.4375 C 3.222656 -29.882812 3.144531 -30.257812 3.0625 -30.5625 L 3.0625 -30.640625 C 3.34375 -30.628906 3.640625 -30.625 3.953125 -30.625 C 4.222656 -30.613281 4.523438 -30.609375 4.859375 -30.609375 C 5.191406 -30.609375 5.535156 -30.609375 5.890625 -30.609375 C 6.410156 -30.609375 7.109375 -30.65625 7.984375 -30.75 C 8.859375 -30.851562 9.988281 -30.90625 11.375 -30.90625 C 12.65625 -30.90625 13.835938 -30.734375 14.921875 -30.390625 C 16.003906 -30.054688 16.9375 -29.578125 17.71875 -28.953125 C 18.507812 -28.328125 19.128906 -27.554688 19.578125 -26.640625 C 20.035156 -25.722656 20.265625 -24.675781 20.265625 -23.5 C 20.265625 -22.519531 20.128906 -21.640625 19.859375 -20.859375 C 19.585938 -20.085938 19.203125 -19.410156 18.703125 -18.828125 C 18.210938 -18.253906 17.625 -17.769531 16.9375 -17.375 C 16.25 -16.988281 15.488281 -16.679688 14.65625 -16.453125 C 15.863281 -16.265625 16.96875 -15.953125 17.96875 -15.515625 C 18.96875 -15.085938 19.828125 -14.546875 20.546875 -13.890625 C 21.265625 -13.234375 21.816406 -12.46875 22.203125 -11.59375 C 22.597656 -10.71875 22.796875 -9.742188 22.796875 -8.671875 C 22.796875 -5.671875 21.804688 -3.414062 19.828125 -1.90625 C 17.847656 -0.40625 14.882812 0.34375 10.9375 0.34375 C 10.507812 0.34375 10.007812 0.320312 9.4375 0.28125 C 8.875 0.25 8.296875 0.210938 7.703125 0.171875 C 7.109375 0.128906 6.523438 0.0859375 5.953125 0.046875 C 5.390625 0.015625 4.894531 0 4.46875 0 L 3.0625 0 L 3.0625 -0.078125 C 3.144531 -0.378906 3.222656 -0.75 3.296875 -1.1875 C 3.378906 -1.632812 3.445312 -2.1875 3.5 -2.84375 C 3.5625 -3.5 3.601562 -4.28125 3.625 -5.1875 C 3.65625 -6.09375 3.671875 -7.148438 3.671875 -8.359375 Z M 11.515625 -15.15625 C 10.546875 -15.15625 9.734375 -15.117188 9.078125 -15.046875 C 8.421875 -14.972656 7.914062 -14.898438 7.5625 -14.828125 L 7.5625 -8.359375 C 7.5625 -6.691406 7.585938 -5.316406 7.640625 -4.234375 C 7.703125 -3.148438 7.785156 -2.265625 7.890625 -1.578125 C 8.429688 -1.503906 8.972656 -1.4375 9.515625 -1.375 C 10.054688 -1.320312 10.488281 -1.296875 10.8125 -1.296875 C 13.476562 -1.296875 15.425781 -1.890625 16.65625 -3.078125 C 17.882812 -4.273438 18.5 -6.101562 18.5 -8.5625 C 18.5 -9.53125 18.351562 -10.414062 18.0625 -11.21875 C 17.769531 -12.03125 17.335938 -12.726562 16.765625 -13.3125 C 16.191406 -13.894531 15.460938 -14.347656 14.578125 -14.671875 C 13.703125 -14.992188 12.679688 -15.15625 11.515625 -15.15625 Z M 7.5625 -16.75 C 7.957031 -16.707031 8.3125 -16.679688 8.625 -16.671875 C 8.945312 -16.671875 9.285156 -16.671875 9.640625 -16.671875 C 10.609375 -16.671875 11.488281 -16.804688 12.28125 -17.078125 C 13.082031 -17.359375 13.765625 -17.773438 14.328125 -18.328125 C 14.890625 -18.890625 15.328125 -19.585938 15.640625 -20.421875 C 15.953125 -21.253906 16.109375 -22.226562 16.109375 -23.34375 C 16.109375 -24.257812 15.992188 -25.09375 15.765625 -25.84375 C 15.535156 -26.601562 15.195312 -27.25 14.75 -27.78125 C 14.300781 -28.320312 13.75 -28.734375 13.09375 -29.015625 C 12.4375 -29.304688 11.691406 -29.453125 10.859375 -29.453125 C 10.316406 -29.453125 9.84375 -29.425781 9.4375 -29.375 C 9.03125 -29.332031 8.679688 -29.285156 8.390625 -29.234375 C 8.066406 -29.179688 7.789062 -29.109375 7.5625 -29.015625 Z M 7.5625 -16.75 "/></g></g><g style="fill:#000000;fill-opacity:1;"><g transform="translate(186.70366, 251.960227)"><path style="stroke:none" d="M 11.109375 -28.765625 C 9.429688 -28.765625 7.914062 -28.6875 6.5625 -28.53125 C 5.207031 -28.382812 4.039062 -28.226562 3.0625 -28.0625 C 1.914062 -27.84375 0.894531 -27.609375 0 -27.359375 L 0.625 -30.8125 C 0.789062 -30.800781 1.046875 -30.785156 1.390625 -30.765625 C 1.734375 -30.753906 2.113281 -30.738281 2.53125 -30.71875 C 2.945312 -30.707031 3.382812 -30.695312 3.84375 -30.6875 C 4.3125 -30.6875 4.753906 -30.679688 5.171875 -30.671875 C 5.585938 -30.671875 5.953125 -30.664062 6.265625 -30.65625 C 6.585938 -30.644531 6.820312 -30.640625 6.96875 -30.640625 L 19.171875 -30.640625 C 19.304688 -30.640625 19.535156 -30.644531 19.859375 -30.65625 C 20.179688 -30.664062 20.546875 -30.671875 20.953125 -30.671875 C 21.367188 -30.679688 21.804688 -30.6875 22.265625 -30.6875 C 22.734375 -30.695312 23.175781 -30.707031 23.59375 -30.71875 C 24.019531 -30.738281 24.40625 -30.753906 24.75 -30.765625 C 25.09375 -30.785156 25.347656 -30.800781 25.515625 -30.8125 L 26.140625 -27.359375 C 25.222656 -27.609375 24.195312 -27.84375 23.0625 -28.0625 C 22.070312 -28.226562 20.898438 -28.382812 19.546875 -28.53125 C 18.191406 -28.6875 16.675781 -28.765625 15 -28.765625 L 15 -8.359375 C 15 -7.148438 15.015625 -6.09375 15.046875 -5.1875 C 15.085938 -4.28125 15.132812 -3.5 15.1875 -2.84375 C 15.238281 -2.1875 15.300781 -1.632812 15.375 -1.1875 C 15.457031 -0.75 15.539062 -0.378906 15.625 -0.078125 L 15.625 0 L 10.515625 0 L 10.515625 -0.078125 C 10.597656 -0.378906 10.675781 -0.75 10.75 -1.1875 C 10.820312 -1.632812 10.882812 -2.1875 10.9375 -2.84375 C 11 -3.5 11.039062 -4.28125 11.0625 -5.1875 C 11.09375 -6.09375 11.109375 -7.148438 11.109375 -8.359375 Z M 11.109375 -28.765625 "/></g></g><g style="fill:#00609e;fill-opacity:1;"><g transform="translate(212.84819, 251.960227)"><path style="stroke:none" d="M 27.84375 -25.9375 L 27.65625 -25.859375 C 26.539062 -26.878906 25.203125 -27.695312 23.640625 -28.3125 C 22.085938 -28.925781 20.375 -29.234375 18.5 -29.234375 C 16.707031 -29.234375 15.0625 -28.953125 13.5625 -28.390625 C 12.070312 -27.828125 10.785156 -27.007812 9.703125 -25.9375 C 8.628906 -24.875 7.789062 -23.566406 7.1875 -22.015625 C 6.59375 -20.460938 6.296875 -18.695312 6.296875 -16.71875 C 6.296875 -14.53125 6.582031 -12.492188 7.15625 -10.609375 C 7.726562 -8.722656 8.578125 -7.085938 9.703125 -5.703125 C 10.828125 -4.328125 12.234375 -3.242188 13.921875 -2.453125 C 15.609375 -1.660156 17.578125 -1.265625 19.828125 -1.265625 C 20.640625 -1.265625 21.453125 -1.347656 22.265625 -1.515625 C 23.078125 -1.691406 23.859375 -1.945312 24.609375 -2.28125 C 25.359375 -2.613281 26.0625 -3.015625 26.71875 -3.484375 C 27.382812 -3.960938 27.988281 -4.507812 28.53125 -5.125 L 28.765625 -4.984375 L 27.046875 -0.625 C 25.984375 -0.207031 24.804688 0.109375 23.515625 0.328125 C 22.222656 0.546875 20.925781 0.65625 19.625 0.65625 C 16.988281 0.65625 14.578125 0.273438 12.390625 -0.484375 C 10.203125 -1.242188 8.316406 -2.320312 6.734375 -3.71875 C 5.160156 -5.113281 3.9375 -6.789062 3.0625 -8.75 C 2.1875 -10.707031 1.75 -12.882812 1.75 -15.28125 C 1.75 -16.632812 1.921875 -17.960938 2.265625 -19.265625 C 2.617188 -20.578125 3.128906 -21.828125 3.796875 -23.015625 C 4.472656 -24.203125 5.300781 -25.289062 6.28125 -26.28125 C 7.257812 -27.269531 8.378906 -28.125 9.640625 -28.84375 C 10.910156 -29.570312 12.300781 -30.140625 13.8125 -30.546875 C 15.332031 -30.953125 16.972656 -31.15625 18.734375 -31.15625 C 21.484375 -31.15625 24.035156 -30.734375 26.390625 -29.890625 Z M 27.84375 -25.9375 "/></g></g><g style="fill:#458988;fill-opacity:1;"><g transform="translate(96.189051, 267.739123)"><path style="stroke:none" d="M 2.671875 -1.765625 L 3.234375 -1.765625 C 3.734375 -1.765625 4.164062 -1.878906 4.53125 -2.109375 C 4.90625 -2.335938 5.195312 -2.648438 5.40625 -3.046875 C 5.625 -3.441406 5.734375 -3.878906 5.734375 -4.359375 C 5.734375 -4.847656 5.625 -5.285156 5.40625 -5.671875 C 5.195312 -6.054688 4.90625 -6.363281 4.53125 -6.59375 C 4.164062 -6.820312 3.734375 -6.9375 3.234375 -6.9375 L 2.671875 -6.9375 Z M 0.765625 -8.71875 L 3.359375 -8.71875 C 3.972656 -8.71875 4.539062 -8.601562 5.0625 -8.375 C 5.59375 -8.15625 6.050781 -7.847656 6.4375 -7.453125 C 6.832031 -7.066406 7.140625 -6.609375 7.359375 -6.078125 C 7.578125 -5.546875 7.6875 -4.972656 7.6875 -4.359375 C 7.6875 -3.742188 7.578125 -3.171875 7.359375 -2.640625 C 7.140625 -2.109375 6.835938 -1.644531 6.453125 -1.25 C 6.066406 -0.863281 5.609375 -0.554688 5.078125 -0.328125 C 4.546875 -0.109375 3.972656 0 3.359375 0 L 0.765625 0 Z M 0.765625 -8.71875 "/></g></g><g style="fill:#458988;fill-opacity:1;"><g transform="translate(108.589691, 267.739123)"><path style="stroke:none" d="M 5.859375 -8.71875 L 7.78125 -8.71875 L 7.78125 -3.390625 C 7.78125 -2.234375 7.460938 -1.359375 6.828125 -0.765625 C 6.191406 -0.171875 5.304688 0.125 4.171875 0.125 C 3.035156 0.125 2.148438 -0.171875 1.515625 -0.765625 C 0.890625 -1.359375 0.578125 -2.234375 0.578125 -3.390625 L 0.578125 -8.71875 L 2.5 -8.71875 L 2.5 -3.671875 C 2.5 -3.078125 2.613281 -2.613281 2.84375 -2.28125 C 3.082031 -1.957031 3.523438 -1.796875 4.171875 -1.796875 C 4.828125 -1.796875 5.269531 -1.957031 5.5 -2.28125 C 5.738281 -2.613281 5.859375 -3.078125 5.859375 -3.671875 Z M 5.859375 -8.71875 "/></g></g><g style="fill:#458988;fill-opacity:1;"><g transform="translate(121.2081, 267.739123)"><path style="stroke:none" d=""/></g></g><g style="fill:#458988;fill-opacity:1;"><g transform="translate(128.676966, 267.739123)"><path style="stroke:none" d="M 4.96875 -2.546875 C 4.96875 -2.828125 4.863281 -3.070312 4.65625 -3.28125 C 4.445312 -3.488281 4.195312 -3.59375 3.90625 -3.59375 L 2.6875 -3.59375 L 2.6875 -1.5 L 3.90625 -1.5 C 4.195312 -1.5 4.445312 -1.597656 4.65625 -1.796875 C 4.863281 -2.003906 4.96875 -2.253906 4.96875 -2.546875 Z M 4.375 -6.1875 C 4.375 -6.46875 4.269531 -6.707031 4.0625 -6.90625 C 3.863281 -7.101562 3.628906 -7.203125 3.359375 -7.203125 L 2.6875 -7.203125 L 2.6875 -5.171875 L 3.359375 -5.171875 C 3.628906 -5.171875 3.863281 -5.269531 4.0625 -5.46875 C 4.269531 -5.675781 4.375 -5.914062 4.375 -6.1875 Z M 6.9375 -2.5 C 6.9375 -1.75 6.703125 -1.144531 6.234375 -0.6875 C 5.773438 -0.226562 5.128906 0 4.296875 0 L 0.765625 0 L 0.765625 -8.71875 L 3.765625 -8.71875 C 4.265625 -8.71875 4.691406 -8.617188 5.046875 -8.421875 C 5.410156 -8.222656 5.691406 -7.957031 5.890625 -7.625 C 6.097656 -7.300781 6.203125 -6.9375 6.203125 -6.53125 C 6.203125 -6.09375 6.109375 -5.710938 5.921875 -5.390625 C 5.742188 -5.066406 5.488281 -4.832031 5.15625 -4.6875 C 5.644531 -4.570312 6.0625 -4.320312 6.40625 -3.9375 C 6.757812 -3.5625 6.9375 -3.082031 6.9375 -2.5 Z M 6.9375 -2.5 "/></g></g><g style="fill:#458988;fill-opacity:1;"><g transform="translate(140.001583, 267.739123)"><path style="stroke:none" d="M 5.515625 -3.328125 L 4.40625 -6.4375 L 3.3125 -3.328125 Z M 8.765625 0 L 6.703125 0 L 6.078125 -1.75 L 2.75 -1.75 L 2.125 0 L 0.0625 0 L 3.59375 -8.71875 L 5.234375 -8.71875 Z M 8.765625 0 "/></g></g><g style="fill:#458988;fill-opacity:1;"><g transform="translate(153.093949, 267.739123)"><path style="stroke:none" d="M 7.609375 0 L 5.6875 0 L 2.6875 -5.4375 L 2.6875 0 L 0.765625 0 L 0.765625 -8.71875 L 2.6875 -8.71875 L 5.6875 -3.28125 L 5.6875 -8.71875 L 7.609375 -8.71875 Z M 7.609375 0 "/></g></g><g style="fill:#458988;fill-opacity:1;"><g transform="translate(165.737977, 267.739123)"><path style="stroke:none" d="M 7.0625 -2.953125 L 9.203125 -2.953125 C 9.003906 -2.359375 8.695312 -1.828125 8.28125 -1.359375 C 7.863281 -0.898438 7.367188 -0.535156 6.796875 -0.265625 C 6.222656 -0.00390625 5.601562 0.125 4.9375 0.125 C 4.320312 0.125 3.742188 0.0078125 3.203125 -0.21875 C 2.660156 -0.445312 2.179688 -0.769531 1.765625 -1.1875 C 1.347656 -1.601562 1.023438 -2.082031 0.796875 -2.625 C 0.566406 -3.164062 0.453125 -3.742188 0.453125 -4.359375 C 0.453125 -4.972656 0.566406 -5.550781 0.796875 -6.09375 C 1.023438 -6.632812 1.347656 -7.113281 1.765625 -7.53125 C 2.179688 -7.945312 2.660156 -8.269531 3.203125 -8.5 C 3.742188 -8.726562 4.320312 -8.84375 4.9375 -8.84375 C 5.601562 -8.84375 6.21875 -8.707031 6.78125 -8.4375 C 7.351562 -8.175781 7.847656 -7.816406 8.265625 -7.359375 C 8.679688 -6.898438 8.988281 -6.375 9.1875 -5.78125 L 7.046875 -5.78125 C 6.867188 -6.175781 6.582031 -6.484375 6.1875 -6.703125 C 5.789062 -6.929688 5.375 -7.046875 4.9375 -7.046875 C 4.46875 -7.046875 4.039062 -6.921875 3.65625 -6.671875 C 3.269531 -6.429688 2.960938 -6.109375 2.734375 -5.703125 C 2.503906 -5.296875 2.390625 -4.847656 2.390625 -4.359375 C 2.390625 -3.859375 2.503906 -3.40625 2.734375 -3 C 2.960938 -2.59375 3.269531 -2.269531 3.65625 -2.03125 C 4.039062 -1.789062 4.46875 -1.671875 4.9375 -1.671875 C 5.382812 -1.671875 5.804688 -1.789062 6.203125 -2.03125 C 6.597656 -2.269531 6.882812 -2.578125 7.0625 -2.953125 Z M 7.0625 -2.953125 "/></g></g><g style="fill:#458988;fill-opacity:1;"><g transform="translate(179.522076, 267.739123)"><path style="stroke:none" d=""/></g></g><g style="fill:#458988;fill-opacity:1;"><g transform="translate(186.990943, 267.739123)"><path style="stroke:none" d="M 5.515625 -3.328125 L 4.40625 -6.4375 L 3.3125 -3.328125 Z M 8.765625 0 L 6.703125 0 L 6.078125 -1.75 L 2.75 -1.75 L 2.125 0 L 0.0625 0 L 3.59375 -8.71875 L 5.234375 -8.71875 Z M 8.765625 0 "/></g></g><g style="fill:#458988;fill-opacity:1;"><g transform="translate(200.083309, 267.739123)"><path style="stroke:none" d="M 5.859375 -8.71875 L 7.78125 -8.71875 L 7.78125 -3.390625 C 7.78125 -2.234375 7.460938 -1.359375 6.828125 -0.765625 C 6.191406 -0.171875 5.304688 0.125 4.171875 0.125 C 3.035156 0.125 2.148438 -0.171875 1.515625 -0.765625 C 0.890625 -1.359375 0.578125 -2.234375 0.578125 -3.390625 L 0.578125 -8.71875 L 2.5 -8.71875 L 2.5 -3.671875 C 2.5 -3.078125 2.613281 -2.613281 2.84375 -2.28125 C 3.082031 -1.957031 3.523438 -1.796875 4.171875 -1.796875 C 4.828125 -1.796875 5.269531 -1.957031 5.5 -2.28125 C 5.738281 -2.613281 5.859375 -3.078125 5.859375 -3.671875 Z M 5.859375 -8.71875 "/></g></g><g style="fill:#458988;fill-opacity:1;"><g transform="translate(212.701718, 267.739123)"><path style="stroke:none" d=""/></g></g><g style="fill:#458988;fill-opacity:1;"><g transform="translate(220.170584, 267.739123)"><path style="stroke:none" d="M 4.46875 -6.96875 L 4.46875 0 L 2.546875 0 L 2.546875 -6.96875 L 0.0625 -6.96875 L 0.0625 -8.71875 L 6.953125 -8.71875 L 6.953125 -6.96875 Z M 4.46875 -6.96875 "/></g></g><g style="fill:#458988;fill-opacity:1;"><g transform="translate(231.456772, 267.739123)"><path style="stroke:none" d="M 2.6875 -3.109375 L 2.6875 0 L 0.765625 0 L 0.765625 -8.71875 L 4.03125 -8.71875 C 4.5 -8.71875 4.9375 -8.597656 5.34375 -8.359375 C 5.75 -8.128906 6.078125 -7.800781 6.328125 -7.375 C 6.578125 -6.957031 6.703125 -6.472656 6.703125 -5.921875 C 6.703125 -5.429688 6.609375 -5 6.421875 -4.625 C 6.242188 -4.25 6.003906 -3.941406 5.703125 -3.703125 C 5.410156 -3.460938 5.082031 -3.296875 4.71875 -3.203125 L 7.21875 0 L 4.78125 0 L 2.703125 -3.109375 Z M 3.71875 -7.203125 L 2.6875 -7.203125 L 2.6875 -4.625 L 3.71875 -4.625 C 4 -4.625 4.257812 -4.734375 4.5 -4.953125 C 4.75 -5.179688 4.875 -5.503906 4.875 -5.921875 C 4.875 -6.316406 4.75 -6.628906 4.5 -6.859375 C 4.257812 -7.085938 4 -7.203125 3.71875 -7.203125 Z M 3.71875 -7.203125 "/></g></g><g style="fill:#458988;fill-opacity:1;"><g transform="translate(242.781389, 267.739123)"><path style="stroke:none" d="M 5.515625 -3.328125 L 4.40625 -6.4375 L 3.3125 -3.328125 Z M 8.765625 0 L 6.703125 0 L 6.078125 -1.75 L 2.75 -1.75 L 2.125 0 L 0.0625 0 L 3.59375 -8.71875 L 5.234375 -8.71875 Z M 8.765625 0 "/></g></g><g style="fill:#458988;fill-opacity:1;"><g transform="translate(255.873756, 267.739123)"><path style="stroke:none" d="M 8.765625 -8.71875 L 5.234375 0 L 3.59375 0 L 0.0625 -8.71875 L 2.140625 -8.71875 L 3.9375 -3.8125 L 4.40625 -2.453125 L 4.875 -3.8125 L 6.6875 -8.71875 Z M 8.765625 -8.71875 "/></g></g><g style="fill:#458988;fill-opacity:1;"><g transform="translate(268.966122, 267.739123)"><path style="stroke:none" d="M 5.515625 -3.328125 L 4.40625 -6.4375 L 3.3125 -3.328125 Z M 8.765625 0 L 6.703125 0 L 6.078125 -1.75 L 2.75 -1.75 L 2.125 0 L 0.0625 0 L 3.59375 -8.71875 L 5.234375 -8.71875 Z M 8.765625 0 "/></g></g><g style="fill:#458988;fill-opacity:1;"><g transform="translate(282.058489, 267.739123)"><path style="stroke:none" d="M 2.6875 0 L 0.765625 0 L 0.765625 -8.71875 L 2.6875 -8.71875 Z M 2.6875 0 "/></g></g><g style="fill:#458988;fill-opacity:1;"><g transform="translate(289.783545, 267.739123)"><path style="stroke:none" d="M 0.765625 0 L 0.765625 -8.71875 L 2.6875 -8.71875 L 2.6875 -1.75 L 5.8125 -1.75 L 5.8125 0 Z M 0.765625 0 "/></g></g></g></svg>
